<?xml version="1.0" encoding="UTF-8"?>
<svg id="Camada_2" data-name="Camada 2" xmlns="http://www.w3.org/2000/svg" xmlns:xlink="http://www.w3.org/1999/xlink" viewBox="0 0 2187.72 1064">
  <defs>
    <style>
      .cls-1 {
        stroke: #fff;
        stroke-miterlimit: 10;
        stroke-width: 8px;
      }

      .cls-1, .cls-2 {
        fill: none;
      }

      .cls-3 {
        fill: #fff;
      }

      .cls-4 {
        clip-path: url(#clippath-1);
      }

      .cls-5 {
        clip-path: url(#clippath);
      }
    </style>
    <clipPath id="clippath">
      <rect class="cls-1" x="700.74" y="70" width="1187" height="913" rx="30" ry="30"/>
    </clipPath>
    <clipPath id="clippath-1">
      <path class="cls-2" d="M758.24,124h1039c16.56,0,30,13.44,30,30v775H758.24V124h0Z"/>
    </clipPath>
  </defs>
  <g id="Popup_base" data-name="Popup base">
    <g>
      <g class="cls-5">
        <image width="1920" height="1280" transform="translate(510.74) scale(.83)" xlink:href="../../../ABP_MVT_G4_1B_INFO_CASINHA/ABP_MVT_2ANO_2B_INFO_UNIVERSO_V3_Pasta/Links/background-2424153.jpg"/>
      </g>
      <rect class="cls-1" x="700.74" y="70" width="1187" height="913" rx="30" ry="30"/>
    </g>
  </g>
  <g id="Popup_foto" data-name="Popup foto">
    <g>
      <path d="M756.24,931V122h1044c15.99,0,29,13.01,29,29v780H756.24Z"/>
      <path class="cls-3" d="M1800.24,123c15.44,0,28,12.56,28,28v779H757.24V123h1043M1800.24,121H755.24v811h1075V151c0-16.57-13.43-30-30-30h0Z"/>
    </g>
    <g class="cls-4">
      <image width="1920" height="640" transform="translate(0 135.91) scale(1.14)" xlink:href="../../../ABP_MVT_G4_1B_INFO_CASINHA/ABP_MVT_2ANO_2B_INFO_UNIVERSO_V3_Pasta/Links/ABP_MVT_2ANO_2B_INFO_UNIVERSO_FOTO_020.webp"/>
    </g>
  </g>
</svg>