<?xml version="1.0" encoding="UTF-8"?>
<svg xmlns="http://www.w3.org/2000/svg" xmlns:xlink="http://www.w3.org/1999/xlink" viewBox="0 0 1596 1064">
  <defs>
    <style>
      .cls-1 {
        fill: none;
        stroke: #fff;
        stroke-miterlimit: 10;
        stroke-width: 8px;
      }

      .cls-2, .cls-3 {
        fill: #fff;
      }

      .cls-4 {
        isolation: isolate;
      }

      .cls-3 {
        filter: url(#drop-shadow-1);
      }

      .cls-5 {
        mix-blend-mode: screen;
      }

      .cls-6 {
        clip-path: url(#clippath);
      }
    </style>
    <clipPath id="clippath">
      <rect class="cls-1" x="190" y="70" width="1187" height="913" rx="30" ry="30"/>
    </clipPath>
    <filter id="drop-shadow-1" x="243" y="876.5" width="1084" height="146" filterUnits="userSpaceOnUse">
      <feOffset dx="1.17" dy="1.17"/>
      <feGaussianBlur result="blur" stdDeviation="1.17"/>
      <feFlood flood-color="#000" flood-opacity=".3"/>
      <feComposite in2="blur" operator="in"/>
      <feComposite in="SourceGraphic"/>
    </filter>
  </defs>
  <g class="cls-4">
    <g id="Camada_2" data-name="Camada 2">
      <g id="Popup_base" data-name="Popup base">
        <g>
          <g class="cls-6">
            <image width="1920" height="1280" transform="scale(.83)" xlink:href="../../../ABP_MVT_G4_1B_INFO_CASINHA/ABP_MVT_2ANO_2B_INFO_UNIVERSO_V3_Pasta/Links/background-2424153.jpg"/>
          </g>
          <rect class="cls-1" x="190" y="70" width="1187" height="913" rx="30" ry="30"/>
        </g>
      </g>
      <g id="Popup_foto" data-name="Popup foto">
        <g>
          <path d="M247,931V122h1044c15.99,0,29,13.01,29,29v780H247Z"/>
          <path class="cls-2" d="M1291,123c15.44,0,28,12.56,28,28v779H248V123h1043M1291,121H246v811h1075V151c0-16.57-13.43-30-30-30h0Z"/>
        </g>
        <image class="cls-5" width="5324" height="3204" transform="translate(245.5 234) scale(.2)" xlink:href="../../../ABP_MVT_G4_1B_INFO_CASINHA/ABP_MVT_2ANO_2B_INFO_UNIVERSO_V3_Pasta/Links/ABP_MVT_2ANO_2B_INFO_UNIVERSO_FOTO_038.png"/>
      </g>
      <g id="Popup_base_textos" data-name="Popup base textos">
        <path class="cls-3" d="M245.61,879h1075.78v108c0,16.56-13.44,30-30,30H275.61c-16.56,0-30-13.44-30-30v-108h0Z"/>
        <path class="cls-2" d="M276,27h766.5c16.56,0,30,13.44,30,30v64H246v-64c0-16.56,13.44-30,30-30Z"/>
      </g>
    </g>
  </g>
</svg>