<?xml version="1.0" encoding="UTF-8"?>
<svg id="Camada_2" data-name="Camada 2" xmlns="http://www.w3.org/2000/svg" xmlns:xlink="http://www.w3.org/1999/xlink" viewBox="0 0 1596 1064">
  <defs>
    <style>
      .cls-1 {
        fill: none;
        stroke: #fff;
        stroke-miterlimit: 10;
        stroke-width: 8px;
      }

      .cls-2, .cls-3 {
        fill: #fff;
      }

      .cls-3 {
        filter: url(#drop-shadow-1);
      }

      .cls-4 {
        clip-path: url(#clippath);
      }
    </style>
    <clipPath id="clippath">
      <rect class="cls-1" x="190" y="70" width="1187" height="913" rx="30" ry="30"/>
    </clipPath>
    <filter id="drop-shadow-1" x="241.5" y="876.5" width="1084" height="146" filterUnits="userSpaceOnUse">
      <feOffset dx="1.17" dy="1.17"/>
      <feGaussianBlur result="blur" stdDeviation="1.17"/>
      <feFlood flood-color="#000" flood-opacity=".3"/>
      <feComposite in2="blur" operator="in"/>
      <feComposite in="SourceGraphic"/>
    </filter>
  </defs>
  <g id="Popup_base" data-name="Popup base">
    <g>
      <g class="cls-4">
        <image width="1920" height="1280" transform="scale(.83)" xlink:href="../../../ABP_MVT_G4_1B_INFO_CASINHA/ABP_MVT_2ANO_2B_INFO_UNIVERSO_V3_Pasta/Links/background-2424153.jpg"/>
      </g>
      <rect class="cls-1" x="190" y="70" width="1187" height="913" rx="30" ry="30"/>
    </g>
  </g>
  <g id="Popup_foto" data-name="Popup foto">
    <g>
      <path d="M245.5,931V122h1044c15.99,0,29,13.01,29,29v780H245.5Z"/>
      <path class="cls-2" d="M1289.5,123c15.44,0,28,12.56,28,28v779H246.5V123h1043M1289.5,121H244.5v811h1075V151c0-16.57-13.43-30-30-30h0Z"/>
    </g>
    <image width="1024" height="1024" transform="translate(388.5 130) scale(.73)" xlink:href="../../../ABP_MVT_G4_1B_INFO_CASINHA/ABP_MVT_2ANO_2B_INFO_UNIVERSO_V3_Pasta/Links/ABP_MVT_2ANO_2B_INFO_UNIVERSO_FOTO_032.jpg"/>
  </g>
  <g id="Popup_base_textos" data-name="Popup base textos">
    <path class="cls-3" d="M244.11,879h1075.78v108c0,16.56-13.44,30-30,30H274.11c-16.56,0-30-13.44-30-30v-108h0Z"/>
    <path class="cls-2" d="M274.5,27h704.5c16.56,0,30,13.44,30,30v64H244.5v-64c0-16.56,13.44-30,30-30Z"/>
  </g>
</svg>