<?xml version="1.0" encoding="UTF-8"?>
<svg xmlns="http://www.w3.org/2000/svg" xmlns:xlink="http://www.w3.org/1999/xlink" viewBox="0 0 1596 1064">
  <defs>
    <style>
      .cls-1 {
        stroke: #fff;
        stroke-miterlimit: 10;
        stroke-width: 8px;
      }

      .cls-1, .cls-2 {
        fill: none;
      }

      .cls-3 {
        fill: #fff;
      }

      .cls-4 {
        clip-path: url(#clippath-1);
      }

      .cls-5 {
        isolation: isolate;
      }

      .cls-6 {
        mix-blend-mode: screen;
      }

      .cls-7 {
        clip-path: url(#clippath);
      }
    </style>
    <clipPath id="clippath">
      <rect class="cls-1" x="190" y="70" width="1187" height="913" rx="30" ry="30"/>
    </clipPath>
    <clipPath id="clippath-1">
      <rect class="cls-2" x="340" y="136" width="891" height="732"/>
    </clipPath>
  </defs>
  <g class="cls-5">
    <g id="Camada_2" data-name="Camada 2">
      <g id="Popup_base" data-name="Popup base">
        <g>
          <g class="cls-7">
            <image width="1920" height="1280" transform="scale(.83)" xlink:href="../../../ABP_MVT_G4_1B_INFO_CASINHA/ABP_MVT_2ANO_2B_INFO_UNIVERSO_V3_Pasta/Links/background-2424153.jpg"/>
          </g>
          <rect class="cls-1" x="190" y="70" width="1187" height="913" rx="30" ry="30"/>
        </g>
      </g>
      <g id="Popup_foto" data-name="Popup foto">
        <g>
          <path d="M245.5,931V122h1044c15.99,0,29,13.01,29,29v780H245.5Z"/>
          <path class="cls-3" d="M1289.5,123c15.44,0,28,12.56,28,28v779H246.5V123h1043M1289.5,121H244.5v811h1075V151c0-16.57-13.43-30-30-30h0Z"/>
        </g>
        <g class="cls-4">
          <image class="cls-6" width="1275" height="1125" transform="translate(349 126) scale(.68)" xlink:href="../../../ABP_MVT_G4_1B_INFO_CASINHA/ABP_MVT_2ANO_2B_INFO_UNIVERSO_V3_Pasta/Links/ABP_MVT_2ANO_2B_INFO_UNIVERSO_FOTO_027.jpg"/>
        </g>
      </g>
    </g>
  </g>
</svg>