<?xml version="1.0" encoding="UTF-8"?>
<svg id="Camada_2" data-name="Camada 2" xmlns="http://www.w3.org/2000/svg" xmlns:xlink="http://www.w3.org/1999/xlink" viewBox="0 0 184.37 34.01">
  <defs>
    <style>
      .cls-1 {
        fill: #fff;
      }

      .cls-2 {
        fill: #a67ff5;
      }

      .cls-3 {
        filter: url(#drop-shadow-1);
      }
    </style>
    <filter id="drop-shadow-1" x="-2" y="0" width="186.37" height="35.01" filterUnits="userSpaceOnUse">
      <feOffset dx="-2" dy="1"/>
      <feGaussianBlur result="blur" stdDeviation="0"/>
      <feFlood flood-color="#000" flood-opacity=".3"/>
      <feComposite in2="blur" operator="in"/>
      <feComposite in="SourceGraphic"/>
    </filter>
  </defs>
  <g id="Logo">
    <g class="cls-3">
      <path class="cls-2" d="M73.63,22.2c6.63-.68,13.3-.66,19.94-.18,6.41.46,12.77,1.32,19.12,2.3,6.16.95,12.3,2.01,18.47,2.88,5.86.82,11.77,1.47,17.69,1.6,5.68.12,11.39-.27,16.95-1.46.67-.14,1.34-.3,2.01-.47.06-.01.46-.13.41-.23-.05-.12-.41-.01-.47,0-5.55,1.39-11.29,1.89-17,1.85-5.94-.04-11.86-.65-17.74-1.45-6.1-.83-12.17-1.87-18.25-2.83-6.27-.98-12.56-1.87-18.89-2.39-6.45-.52-12.93-.66-19.38-.15-.82.06-1.64.14-2.45.22-.21.02-.97.38-.39.32"/>
      <path class="cls-1" d="M167.48,9.98c-.17.1-.47,1.31-.4,1.54.07-.2.67-1.27.4-1.54M173.37,5.83c-.37,1-.57,1.97-.67,2.95-.1.87-.27,1.77-.57,2.61-.23.7-.27,1.44-.47,2.11-.23.8-.33,1.64-.64,2.41-.17.47-.13.54.37.64.2.07.4.13.6.13,1.07.07,2.28.1,3.38.17-.2-1.14-.4-2.28-.54-3.41-.1-.9-.27-1.74-.54-2.58-.3-.84-.2-1.74-.43-2.58-.2-.67-.33-1.37-.3-2.07.03-.1-.03-.23-.2-.37M172.96.54c.4-.23.74.17,1.07.3.33.13.3.47.23.7-.1.23-.07.5-.03.74.13.97.3,1.97.47,2.98.17,1.24.27,1.71.57,2.94.4,1.64.67,2.95.87,4.62.13,1.14.57,2.58.74,3.72.1.77,0,.6.77.8.23.03.54-.03.67.27-.13.27-.4.3-.64.37-.44.13-.44.1-.37.57l.1.5c.4,1.44.64,2.88.8,4.38.03.33-.23,1.17-.3.87-.13-.54-.37.2-.5.23-.5.13-.67.03-.74-.37-.07-.27-.1-.57-.13-.84l-.27-2.31c-.07-.64-.27-1.21-.4-1.84-.1-.3-.07-.67-.27-.87-.2-.23-.77-.1-1.07-.13-1.34-.17-2.34-.07-3.65-.13-.3,0-.54.1-.6.43-.17.94-.64,1.77-.87,2.68-.27,1.07-.64,2.14-1,3.25-.07.27-.23.37-.5.27-.4-.1-1.04.27-1.17-.33-.07-.3-1.77-.2-1.9.17-.03.17-.27.1-.33.23-.17.33-.4.37-.57.54-.37-.03-.3-.33-.3-.37-.57-.07-.6-.5-.64-.9-.07-.87.2-1.67.5-2.38.5-1.21.9-2.44,1.24-3.68.07-.33,0-.67.07-.97.23-1.17.4-2.34.84-3.41.57-1.44,1.1-2.88,1.51-4.38.23-.9.2-1.87.67-2.71.27-.5.33-.33.4-.9.1-.74.4-1.44.57-2.18.17-.64.47-1.24.7-1.84.47-1.27.6-.67.6.17.07-.3,1.6-1.21,1.8-1.14.33.07.7.13,1.07-.03"/>
      <path class="cls-1" d="M121.07,14.28c-.07-1.75.69-3.61.86-5.29.17-1.68.48-3.33,1-5.08.21,3.54.24,7,.58,10.47-.82-.14-1.68,0-2.44-.1M131.43,22.03c-.27-1.17-.62-2.33-.86-3.5-.1-.58-.14-1.27-.27-1.82.34-.1,1.54.25,3.8-.06.43-.06-.73-1.16-1.14-1.31-.84-.31-1.76-.42-2.45-.42-.55,0-.58-.1-.75-.65-.21-.72-.27-1.2-.45-1.92-.17-.96-.48-1.96-.48-2.99.03-1.34-.21-2.68-.38-4.02-.17-1.44-.76-2.78-1.06-4.15-.07-.41-2.05-.76-2.4-.62-.31.14-.55.27-.82.41-.17-.1-.27-.24-.41-.31-.48-.34-.69-.27-1.03.21-.03.07-.07.14-.14.1-.79-.21-.76.41-.93.89-.27.96-.41,1.92-.65,2.88-.34,1.44-.69,2.88-.93,4.33-.24,1.58-.52,3.16-.79,4.7-.07.55-.1.55-.69.62-.96-.03-1.37.38-2.03.58.38,1.1,1.3,1.2,2.23,1.3-.07.86-.52,2.58-.72,4.27-.08,1.21.49,1.49.84,1.04.17-.03.19.72.5.41.41-.48.63-2.27.76-2.92.38-1.82.29-1.56.44-2.25.1-.34.24-.48.58-.48.82,0,1.61-.03,2.44.14.48.1.27-.07.41.82.14.96.38,1.89.58,2.82.21,1.1.34,2.16.79,3.19.45.93,1.98,1.13,3.01.93,0-.14,0-.31-.03-.45-.03-.17,0-.31.14-.45.27.14.41.45.58.65.41.52.82.58,1.41.24.14-.1.31-.24.48-.31.51-.21.62-.34.58-.86-.07-.34-.1-.72-.17-1.06"/>
      <path class="cls-1" d="M93.67,20.5c.13,0,.17.63-.1.73-.03-.17,0-.53.1-.73M93.87,19.97c.1-2.64.9-5.2,1.4-7.77.47-.7-.37,2.74-1.4,7.77M100.63,15.1c.03-.27.07-.53.07-.83-.03-1.2.17-2.2.4-3.67.13-.83.47-3.44.57-4.34.3,0,.93,4.14,1.23,5.34.33,1.2.87,2.37,1,3.67-.7.13-2.37,0-3.04.1-.17.03-.27-.1-.23-.27M103.57,8.96c-.17-.53-.43-1.03-.27-1.67.23.7.3,1.27.27,1.67M92.54,24.64c.41.05.37-.17.47-.6.1-.47.1-.93.37-1.5,0,.63-.03,1.13,0,1.63.03.27-.17.73.43.67.07,0,.87-.07,1.1-.4.37-.57.77-.53,1.07.07.1.17,1.36.4,1.66.17.1-.1.1.07.13.13.23.37.47.43.87.23.2-.13.4-.33.47-.57.17-.5.37-.97.43-1.5.17-1.33.43-2.63.5-3.97.03-.93.17-1.17.47-1.17.33,0,2.4-.13,2.74-.1.27,0,.63-.1.93-.1.17.8.3,1.7.4,2.5.17,1.07.4,2.17.73,3.2.2.6.5,1.2.93,1.77.47-.37.7-.8.67-1.4-.07-.87-.3-1.7-.47-2.54-.2-1.13-.4-2.07-.6-3.17-.03-.13-.13-.3-.03-.47.77.03,1.6-.2,2.37-.13.13,0,.5-.27.37-.33-.13-.07-.43,0-.63-.03-.57-.07-.4.03-.73-.07-.27,0-.27-.23.27-.23.13,0,1.51-.15,3.64-.33.33-.03-.02-1.25-.35-1.26-1.69-.02-2.61.07-2.85.08-.83.03-1.47.03-2.1.07-.3,0-.43-.1-.5-.4-.5-2.13-.8-4.27-1.3-6.37-.37-1.73-.53-3.77-.97-5.5,0-.1,0-.2-.2-.33-.37.3.4,2.6.37,4.17-.3-1.1-.7-3.3-1.07-4.8-.03-.2,0-.53,0-.77.03-.5-.23-.73-.7-.63-.13.07-.23.2-.4-.03-.07-.17-.33-.17-.5-.03-.4.33-2.33.33-2.79.4-.47.1-.47.07-.5.53-.13,1.53-.83,3.57-1.13,5.07-.33,1.67-1.03,3.34-1.2,5.04-.13,1.07-.5,2.13-.63,3.2-.2,1.3-.77,2.6-1.07,3.9-.07.3-.07.63-.1.93,0,.53-.2,1.03-.3,1.57-.1.5-.2.93-.03,1.43.03.1-.03.27-.03.43-.1.53-.17,1-.17,1.53"/>
      <path class="cls-1" d="M85.94,1.65c.07.45.24.89.21,1.37-.03.45,0,.93,0,1.41-.03,1.44-.07,2.92.1,4.36.1.96,0,1.96.21,2.92.07.52.14,1.03.14,1.55,0,.17,0,.41.14.62.14-.1.21-.17.27-.24.41-.58,1.13-.76,1.65-1.3.27-.27.69-.48.86-.82.48-1,.89-1.99,1.1-3.09.03-.24.14-.34.34-.38,0,.48-.14,1.06-.45,1.89-.03.14,0,.14,0,.21.34,0,1.2-2.27.89-3.3,0-.03-.03-.07-.1-.07-.1.07-.1.24-.24.38-.21-.21-.14-.41-.1-.62.1-.41.1-.55.14-.93.03-.27,0-.72-.07-1-.03-.21-.07-.48-.21-.69-.31-.58-.55-1.2-1.03-1.72-.21-.24-.45-.45-.82-.55-.96-.27-1.96-.03-2.92-.1-.03,0-.07.03-.1.1M82.86.36c.03.07.1.14.21.14.55-.14,2.36.07,2.91.03,1.03-.03,2.06-.14,3.06,0,1.17.1,2.33.3,3.33,1.02.51.38,1,.82,1.41,1.34.38.48.41,1,.65,1.48.03.1,0,.24.03.34.14.62.1,1.48.17,2.23.07.79.1,1.61-.17,2.4l-.24.45c-.55.96-.79,1.65-1.37,1.96-.62.31-1.13.76-1.68,1.13-.1.07-.21.17-.34.21-1.06.45-1.99,1.13-2.99,1.72l-.45.24c-.69.34-.72.69-.72.82l-.03.69c.21,1.27-.1,2.54.03,3.78.07.51-.14,1.2-.14,1.68,0,.82.03,1.61.21,2.4.03.17.07.31,0,.45-.03.24-.17.38-.41.27-.58-.21-2.95.24-3.39-.86-.1-.31-.03-1.2-.17-1.3-.17-.1-.24,1.58-.38,1.58-.58,0-.93-.27-.96-.86-.03-.45-.07-.86,0-1.3.1-.96,0-2.09,0-3.06v-1.82c0-.27-.1-.41-.45-.34-.34.1-.45-.07-.34-.38.1-.21.24-.48.41-.48.45-.07.34-.34.34-.62-.07-1.68-.21-3.33-.24-5.01-.03-1.65-.03-3.26,0-4.91,0-.93.14-1.82.21-2.75.03-.41,0-.86-.03-1.27-.03-.21,0-.47-.03-.61s-.62-.21-.65-.34c.07-.24.58-.21.65-.51.03-.17.38-.34.55-.27.31.17.76,0,1.03.34"/>
      <path class="cls-1" d="M113.68,1.08c.14.03.1.24.1.34,0,.45,0,.89-.07,1.34-.14,1.37-.03,2.02,0,3.39,0,.58-.1,1.17.03,1.72.03.24,0,.48.24.65.45-1.3-.1-2.61.1-3.95.24-1.27-.03-1.88.17-3.29.48.38.38.82.34,1.2,0,.89.03,1.06.03,1.95-.03,1.58.03,3.12.03,4.7.03,1.55-.07,3.09.24,4.6.27,1.17.45,2.3.58,3.5.07,1.06-.14,2.09-.24,3.12-.03.24-.07.45-.07.69-.03.38-.07.76-.27,1.1s-.21.72-.03,1.1c.1.03.86-.07.96-.07.45,0,.93.03,1.41-.07.65-.1,1.3-.14,1.99-.21.34,0,.72-.03,1.03.17.17.1.38.07.58.07.17,0,.34-.03.52.07.17.1.34.24.1.41-.17.17-.24.27-.1.48.1.1.03.24-.07.27-.48.21-.86.51-1.44.45-.82-.07-1.65.21-2.51.14-.93-.03-1.89.07-2.82.14-.89.1-3.32.07-4.22.24-.62.1-1.06-.21-1.37-.89.34-.27.96.03,1.13-.55-.03-.17-.21-.24-.31-.38-.24-.34-.48-.65-.51-1.1-.1-2.06,0-4.12-.14-6.15-.1-1.72-.07-3.43-.14-5.15-.03-1.82-.14-3.61-.17-5.43-.03-1.44.07-2.19-.07-3.63-.03-.34.17-.45.41-.45.55.07.93-.38,1.44-.41.1,0,.17-.1.24-.21.17-.45,1.78-.52,2.19-.55.21.21.27.55.65.62"/>
      <path class="cls-1" d="M144.94,1.17c-.07-.44.37-.61.37-.58.17.54-.17.71-.37.58M140.91,22.49c-.03.07.03.54.14.65.03-.07.24-.37.24-.44.07-.37.37-2.21.1-2-.03.07-.44,1.73-.48,1.8M146.1,1.27c-.24.82-.65,1.63-.61,2.45,0,.85-1.14,6.21-1.45,7.43-.24.88-.31,1.8-.41,2.68-.1.61-.14,1.19-.34,1.77-.14.51-.07,1.09-.2,1.63-.1.37-.1.75-.17,1.12-.07.61-.14,1.22-.34,1.8-.2.54-.34,1.12-.41,1.7-.07.51-.14.95-.31,1.43-.03.17-.2.58-.17.75-.1.61-.27.61-.68.75-.17-.27.17-.68-.03-.95-.17.07-.24.14-.27.27-.17.68-1.86,1.09-2.47,1.19-.2.03-.34-.1-.48-.17q-.24-.14-.48,0c-.68-.85-.71-1.94-1.05-2.92-.37-.95-.75-2-.98-2.96-.44-1.66-.51-3.36-1.12-4.99-.14-.41-.2-.82-.2-1.22-.14-1.36-.78-2.68-1.02-4.01l-.58-3.19c-.03-.2-.07-.41-.14-.61-.03-.14-.14-.31-.07-.44.17-.44-.14-.78-.27-1.19-.14-.44-.2-1.02-.24-1.49,0-.14,0-.27.17-.34.37.48.31,1.19.65,1.77.07-.78.03-1.49-.14-2.17-.1-.41-.03-.58.41-.61.44-.07.85,0,1.12.41l.1.2c.51,0,1.79-1.97,2.68.27.17.34.27.71.37,1.09.24.92.58,1.8.78,2.75.27,1.16.51,2.34.71,3.53.14.65.44,1.26.75,1.83.03.1.07.2.07.31.24,1.49.78,2.92,1.05,4.42.24,1.39.41,2.79.75,4.25.27-.98.44-1.97.61-2.99.07-.51.14-1.05.27-1.56.24-.78.24-1.63.34-2.45.03-.37.03-.71.14-1.05.31-.98.31-2.04.54-3.02.24-1.02.83-4.76,1.16-6.05.17-.58.11-.3.42-.7.07-.27.31-.65.37-.48.07.24-.14.88.2.48.2-.41.54-1.39,1.19-1.49,0,.27-.17.61-.24.82"/>
      <path class="cls-1" d="M153.54,12.35c.21-.1.28-.14.31-.17,1.15-1.15,2.33-2.22,3.27-3.54.63-.9.83-1.95,1.01-2.99,0-.17-.03-.31-.1-.45-.14-.28-.21-.56-.17-.87.03-.24-.07-.42-.31-.52-.17-.07-.31-.21-.49-.31-.63-.49-1.22-1.04-2.09-1.29-.52-.14-.97-.1-1.53-.1.24,3.41.21,6.78.1,10.25M155.07.74c1.01.07,2.05.07,2.92.66.49.38,1.04.63,1.6.83.45.21.76.56.94,1.04.42,1.04.83,2.09.73,3.27-.03.38.17.69.17,1.08.03,1.49-.66,2.61-1.7,3.58-.49.45-1.11.73-1.67,1.11-.17.14-.31.28-.59.35.03-.31.38-.38.38-.7-.45.1-.73.42-1.04.7-.14.14.03.35.17.45.49.42.94.9,1.39,1.35.73.7,1.15,1.56,1.49,2.47.56,1.46,1.15,2.92,1.81,4.31.1.24.21.49.24.76.14.52.35,1.08.59,1.56.17.28.1.52.07.8-.03.31-.1.49-.45.52-.03,0-.1.1-.14.17-.14.21-.31.24-.49.07-.35-.31-.66-.49-1.08-.17-.07.07-.28.07-.38,0-.56-.35-1.22-.63-1.53-1.25-.14-.31-.31-.59-.49-.87-1.11-2.29-2.09-4.62-3.02-6.99-.14-.35-.28-.66-.49-1.01-.45.24-.76.56-.66,1.11v.28c-.28,1.29,0,2.57,0,3.89.03,1.22.14,2.47-.03,3.68-.07.31.07.73-.52.66-.1-.03-.17.1-.17.21-.07.17-.1.35-.14.52-.52-.21-2.15-.63-2.6-1.01-.42.42-.9.52-1.39.21-.56-.31-.83-.76-.87-1.43-.03-.56.14-1.08.1-1.63-.07-1.56-.07-3.16-.14-4.73,0-.31-.07-.59-.1-.9-.35-1.77-.38-3.58-.28-5.39.1-1.84.1-3.65.17-5.49.03-.87.14-1.7.07-2.61,0-.17.03-.35-.07-.52-.38,0-.73.24-1.11.21-.1-.17.21-.28.03-.42-.28-.28-.1-.42.17-.52,1.25-.42,2.54-.63,3.89-.45.97.14,3.22.14,4.2.21"/>
      <path class="cls-1" d="M175.58,26.02l-3.44-5.12,6.12,1.58.31,1.84s3.23-.4,3.66-.07c.08.02.34.28.47.3.31.04,1.13.45,1.13.45l-1.14.58c-.1.43-.63,1.86-2.47,2.46.46,1.22-.04,4.03-4.28,5.85-.24-3.94-.23-5.73-.23-5.73l-6.1,1.76,1.91-1.89-1.88-.29.7-.48,5.23-1.23Z"/>
      <path class="cls-2" d="M167.58,26.87c2.91-.7,5.8-1.5,8.75-2.07,1.32-.26,2.66-.49,4.01-.52.45-.01,1.03-.06,1.46.1.45.17.47.8.45,1.22,0,.1.39,0,.4-.01.51-.18,1.02-.35,1.53-.53.04-.01.26-.1.18-.17-.53-.45-1.29-.63-1.97-.57-.67.06-1.96.41-2.08,1.22-.11.77,1.07.59,1.43.28.65-.54-.02-.95-.61-.92-.5.03-1,.2-1.48.35-.2.07-.48.13-.52.37-.02.14.08.35.12.49.1.38.22.75.33,1.13.18.61.47,1.26.57,1.9.03.19-.02.35-.07.54-.6,2.01-2.49,3.35-4.31,4.17.16-.01.32-.03.47-.04,0-1.58.01-3.17-.13-4.74-.02-.22.01-.89-.2-1.05-.11-.09-.29,0-.41.02-.24.04.22-.06,0,0-.13.03-.25.08-.38.12-1.05.32-2.09.64-3.14.96-.84.26-1.68.51-2.52.77.1.02.2.04.3.07.56-.61,1.15-1.19,1.78-1.72.21-.18.42-.35.64-.5.09-.06.18-.13.28-.18.05-.03.11-.07.17-.09.09-.03.08,0,.02-.02.13.04.33.32.24.46-.13.19-.86.04-1.06.03-.15-.01-1.83-.18-1.82-.28,0-.11.39-.2.47-.23.95-.33,1.94-.55,2.92-.78.7-.17,1.41-.32,2.11-.47.02,0,.41-.11.36-.19-1.15-1.71-2.3-3.41-3.45-5.12-.18.07-.37.13-.55.2,1.7.41,3.4.82,5.08,1.29.26.07.74.12.96.29.14.11.13.32.15.5.1,1.01.09,2.03.1,3.05,0,.81,0,1.63,0,2.44,0,.05.15.04.17.04.72-.08,1.44-.25,2.12-.48.89-.3,2-.82,2.23-1.82.03-.13-.56-.04-.59.11-.31,1.39-2.28,1.83-3.49,1.96.06.01.11.03.17.04.01-1.77.05-3.56-.09-5.33-.01-.18.01-.53-.13-.67-.13-.14-.49-.18-.66-.23-1.02-.3-2.06-.56-3.1-.82-.81-.2-1.61-.4-2.42-.6-.07-.02-.62.09-.55.2,1.15,1.71,2.3,3.41,3.45,5.12l.36-.19c-.91.19-1.82.4-2.72.62-.67.16-1.34.33-2,.53-.43.13-.93.24-1.3.49-.24.16-.23.27.05.35.48.13,1.03.16,1.53.21.45.05.91.1,1.36.05.39-.04,1.35-.29.83-.85-.29-.32-.86-.07-1.18.09-1.14.58-2.11,1.65-2.98,2.58-.13.14.25.08.3.07,1.67-.51,3.35-1.02,5.02-1.53.32-.1.64-.19.96-.29.06-.02.11-.03.17-.05.36-.13-.33.06-.33.03,0,0,.05.15.06.2.06.22.08.47.1.7.15,1.61.14,3.25.14,4.87,0,.12.43-.03.47-.04,1.43-.65,2.8-1.52,3.75-2.79.39-.53.88-1.29.91-1.98,0-.15-.04-.27-.09-.42-.16-.52-.31-1.03-.47-1.55-.15-.49-.3-.98-.42-1.48-.05-.19-.08-.19.07-.31.14-.11.62-.19.8-.22.21-.04.57-.06.7.16.17.29-.18.72-.42.36-.27-.4.36-.83.62-.94.75-.31,1.6-.16,2.22.36.06-.06.12-.11.18-.17-.51.18-1.02.35-1.53.53.13,0,.27,0,.4-.01.02-.33,0-.72-.16-1.01-.18-.31-.54-.32-.86-.35-.94-.1-1.9-.02-2.83.09-2.52.31-5,.92-7.46,1.53-1.33.33-2.66.67-4,.99-.35.08-.31.27.05.18"/>
      <path class="cls-2" d="M46.49,24.14c0,.67-.37,1.05-1.05,1.05h-3.75c-.67,0-1.05-.37-1.05-1.05V1.36c0-.67.37-1.05,1.05-1.05h7.01c6.26,0,9.29,2.62,9.29,7.94,0,3.78-1.5,6.18-4.53,7.31l4.61,8.39c.37.71.08,1.24-.75,1.24h-4.42c-.6,0-.97-.22-1.24-.79l-3.86-8.13h-1.31v7.87Z"/>
      <path class="cls-2" d="M20.9,23.99c.22.75-.11,1.2-.86,1.2h-3.97c-.64,0-1.01-.3-1.16-.9l-.82-3.04h-7.34l-.82,3.04c-.15.6-.52.9-1.16.9H.93c-.75,0-1.09-.45-.86-1.2L7.04,1.18c.19-.56.56-.86,1.16-.86h4.57c.6,0,.97.3,1.16.86l6.97,22.82Z"/>
      <path class="cls-2" d="M35.99,12.49c2.59.97,3.71,2.92,3.71,5.99,0,4.68-2.66,6.71-8.88,6.71h-7.72c-.67,0-1.05-.37-1.05-1.05V1.36c0-.67.37-1.05,1.05-1.05h7.04c6.22,0,8.88,1.99,8.88,6.59,0,2.7-.94,4.5-3.04,5.51v.07Z"/>
      <path class="cls-2" d="M72.52,9.55c.67,0,1.05.37,1.05,1.05v4.02c0,.67-.37,1.05-1.05,1.05h-7.79v3.34h9.44c.67,0,1.05.37,1.05,1.05v4.09c0,.67-.37,1.05-1.05,1.05h-14.24c-.67,0-1.05-.37-1.05-1.05V1.36c0-.67.37-1.05,1.05-1.05h14.24c.67,0,1.05.37,1.05,1.05v4.09c0,.67-.37,1.05-1.05,1.05h-9.44v3.04h7.79Z"/>
      <path class="cls-1" d="M28.14,20.97c1.48-.18,3.01-.38,4.44-.81,1.15-.35,2.3-1.01,2.67-2.23.37-1.23-.48-2.16-1.54-2.63-1.25-.55-2.6-.72-3.94-.46-.82.16-1.64.38-2.16,1.07-.39.51-.6,1.16-.74,1.78-.34,1.43-.39,2.99-.21,4.45.06.46.1,1.11.42,1.48.34.4.94.15,1.22-.19-.12.07-.23.15-.35.22.49-.15.59-.57.68-1.03.13-.71.18-1.44.22-2.16.09-1.65-.05-3.26-.11-4.91-.11-2.76-.04-5.53-.14-8.29-.04-1.04-.07-2.09-.17-3.12-.08-.8-.51-1.14-1.3-1.12-.74.02-1.23.41-1.24,1.16,0,.5.16.94.57,1.25.62.47,1.48.4,2.2.21,1.03-.27,2.04-.59,3.13-.47,1.05.12,1.89.71,2.36,1.65.39.78.34,1.59-.3,2.24-1.17,1.2-3.32,1.23-4.86.93-.56-.11-1.54-.31-1.63-1.01,0-.02.05-.42.04-.42-.11.04-.22.08-.33.12.02,0,.04.01.07.02.02.02.13.06.15.07.39.19.73.49,1.07.75,1.15.9,2.25,1.78,3.64,2.26,1.14.39,2.33.62,3.52.8,2.92.43,5.94.51,8.88.18,2.32-.26,5.14-.73,6.89-2.42.65-.63,1.06-1.44,1.03-2.36-.04-1.65-.92-3.67-2.57-4.28-1.08-.4-2.57-.21-3.48.51-1.37,1.09-1.48,3.31-1.19,4.9.21,1.12.7,2.14,1.34,3.07.18.27,1.04-.04.82-.36-.81-1.18-1.34-2.52-1.39-3.96-.04-1.04.09-2.35.8-3.17.42-.49.99-.64,1.61-.64,1.15-.01,2.01.75,2.52,1.73.65,1.24,1,2.9.05,4.07-.78.96-2.07,1.45-3.22,1.77-3.28.93-6.88.92-10.25.58-1.5-.15-3-.39-4.44-.83-1.69-.52-2.92-1.64-4.32-2.67-.51-.37-1.31-.9-1.9-.34-.54.5-.14,1.33.38,1.65.75.47,1.77.59,2.64.64,1.08.06,2.19-.07,3.21-.43,1.23-.44,2.62-1.5,2.38-2.98-.15-.88-.88-1.77-1.65-2.18-.71-.39-1.55-.5-2.35-.47-.58.02-1.16.12-1.73.25-.63.15-1.36.54-2.02.34-.76-.23-.75-.88-.73-1.53,0-.06.13-.18,0-.1.06-.03.26,0,.31,0,.24.06.3.24.36.46.11.39.08.84.11,1.24.24,3.23.14,6.48.23,9.71.06,2.1.25,4.14.09,6.24-.03.41-.07.82-.13,1.23-.02.13-.23.68-.18.79,0,.01-.01.02-.02.03.07-.06.15-.11.24-.13-.08-.02-.24.11-.29.16-.26.23.43-.17.42-.01,0,0-.16-.28-.19-.36-.43-1.27-.35-2.82-.2-4.13.08-.72.21-1.46.49-2.14.31-.76.68-1.07,1.48-1.26,1.38-.33,3.19-.13,4.31.83.51.43.73,1.06.55,1.71-.22.81-.89,1.33-1.64,1.61-1.4.53-3.02.68-4.5.87-.45.06-.72.61-.11.54"/>
      <path class="cls-1" d="M46.38,12.18c2.28,3.02,5.05,5.68,8.47,7.38,3.56,1.77,7.54,2.44,11.48,2.63,2.87.14,5.75.04,8.62-.15.14,0,.53-.06.59-.22.06-.16-.05-.18-.21-.16-8.16.55-17.08.44-23.69-5.05-1.67-1.38-3.11-3-4.42-4.73-.13-.18-.98.11-.83.31"/>
      <path class="cls-1" d="M10.1,21.13c.7-1.18,1.43-2.34,2.15-3.51.44-.72.92-1.42,1.24-2.2.66-1.64.42-3.24-.46-4.73-.77-1.31-1.94-2.44-2.45-3.9-.12-.33-.19-.67-.21-1.02-.01-.28.16-1.17.59-.65.54.65-.41,2.02-.7,2.61-.6,1.22-.97,2.57-1.37,3.87-.5,1.63-.97,3.28-1.4,4.94-.04.15.17.22.28.22,3.52.16,7.08.28,10.47,1.34,3.37,1.06,6.45,3.16,10.11,2.9.45-.03.72-.58.11-.53-3.63.26-6.84-2.07-10.22-3.04-3.3-.94-6.74-1.05-10.15-1.21l.28.22c.42-1.59.86-3.18,1.35-4.75.42-1.36.8-2.76,1.43-4.04.35-.71,1.12-1.86.75-2.69-.37-.85-1.71-.58-2.19.02-.47.59-.2,1.58.05,2.22.3.77.79,1.45,1.27,2.11,1.01,1.4,2.14,2.89,1.96,4.72-.11,1.1-.63,2.04-1.2,2.96-.84,1.36-1.69,2.71-2.51,4.09-.22.37.67.31.83.04"/>
    </g>
  </g>
</svg>