<?xml version="1.0" encoding="UTF-8"?>
<svg xmlns="http://www.w3.org/2000/svg" xmlns:xlink="http://www.w3.org/1999/xlink" viewBox="0 0 345 373.74">
  <defs>
    <style>
      .cls-1 {
        fill: #1d1d1b;
        opacity: .95;
      }

      .cls-2 {
        mask: url(#mask-1);
      }

      .cls-3, .cls-4 {
        fill: #fff;
      }

      .cls-5 {
        mask: url(#mask);
      }

      .cls-6 {
        fill: #854ef5;
      }

      .cls-7 {
        isolation: isolate;
      }

      .cls-8 {
        mix-blend-mode: screen;
      }

      .cls-4 {
        font-family: OpenSans-Bold, 'Open Sans';
        font-size: 25px;
        font-weight: 700;
      }
    </style>
    <filter id="luminosity-noclip" x="5" y="-14531.74" width="335" height="32766" color-interpolation-filters="sRGB" filterUnits="userSpaceOnUse">
      <feFlood flood-color="#fff" result="bg"/>
      <feBlend in="SourceGraphic" in2="bg"/>
    </filter>
    <mask id="mask" x="5" y="-14531.74" width="335" height="32766" maskUnits="userSpaceOnUse"/>
    <filter id="luminosity-noclip-2" x="5" y="-14531.74" width="335" height="32766" color-interpolation-filters="sRGB" filterUnits="userSpaceOnUse">
      <feFlood flood-color="#fff" result="bg"/>
      <feBlend in="SourceGraphic" in2="bg"/>
    </filter>
    <mask id="mask-1" x="5" y="-14531.74" width="335" height="32766" maskUnits="userSpaceOnUse"/>
  </defs>
  <g class="cls-7">
    <g id="Camada_2" data-name="Camada 2">
      <g id="Quadros_galeria" data-name="Quadros galeria">
        <g class="cls-5">
          <rect class="cls-1" x="5" y="5" width="335" height="335" rx="20" ry="20"/>
        </g>
        <path class="cls-3" d="M320,5c11.05,0,20,8.95,20,20v295c0,11.05-8.95,20-20,20H25c-11.05,0-20-8.95-20-20V25C5,13.95,13.95,5,25,5h295M320,0H25C11.21,0,0,11.21,0,25v295c0,13.79,11.21,25,25,25h295c13.79,0,25-11.21,25-25V25c0-13.79-11.21-25-25-25h0Z"/>
      </g>
      <g id="Imagens_galeria" data-name="Imagens galeria">
        <g class="cls-2">
          <rect class="cls-8" x="5" y="3" width="335" height="335" rx="20" ry="20"/>
        </g>
        <image class="cls-8" width="3000" height="3000" transform="translate(37.23 27.38) scale(.09)" xlink:href="../../../ABP_MVT_G4_1B_INFO_CASINHA/ABP_MVT_2ANO_2B_INFO_UNIVERSO_V3_Pasta/Links/ABP_MVT_2ANO_2B_INFO_UNIVERSO_FOTO_022.jpg"/>
      </g>
      <g id="Titulo_galeria" data-name="Titulo galeria">
        <g>
          <rect class="cls-6" x="89" y="311.74" width="173" height="59" rx="12.5" ry="12.5"/>
          <path class="cls-3" d="M249.5,314.24c5.52,0,10,4.48,10,10v34c0,5.52-4.48,10-10,10H101.5c-5.52,0-10-4.48-10-10v-34c0-5.52,4.48-10,10-10h148M249.5,309.24H101.5c-8.27,0-15,6.73-15,15v34c0,8.27,6.73,15,15,15h148c8.27,0,15-6.73,15-15v-34c0-8.27-6.73-15-15-15h0Z"/>
        </g>
      </g>
      <g id="Textos_galeria" data-name="Textos galeria">
        <g>
          <rect class="cls-6" x="89" y="312.24" width="173" height="59" rx="12.5" ry="12.5"/>
          <path class="cls-3" d="M249.5,314.74c5.52,0,10,4.48,10,10v34c0,5.52-4.48,10-10,10H101.5c-5.52,0-10-4.48-10-10v-34c0-5.52,4.48-10,10-10h148M249.5,309.74H101.5c-8.27,0-15,6.73-15,15v34c0,8.27,6.73,15,15,15h148c8.27,0,15-6.73,15-15v-34c0-8.27-6.73-15-15-15h0Z"/>
        </g>
        <text class="cls-4" transform="translate(112.05 352.45)"><tspan x="0" y="0">PLANETAS</tspan></text>
      </g>
    </g>
  </g>
</svg>