<?xml version="1.0" encoding="UTF-8"?>
<svg id="Camada_2" data-name="Camada 2" xmlns="http://www.w3.org/2000/svg" xmlns:xlink="http://www.w3.org/1999/xlink" viewBox="0 0 92 91">
  <defs>
    <style>
      .cls-1 {
        fill: #fff;
      }

      .cls-2 {
        fill: #854ef5;
        filter: url(#drop-shadow-1);
      }
    </style>
    <filter id="drop-shadow-1" x="0" y="0" width="92" height="91" filterUnits="userSpaceOnUse">
      <feOffset dx="-2" dy="1"/>
      <feGaussianBlur result="blur" stdDeviation="0"/>
      <feFlood flood-color="#000" flood-opacity=".3"/>
      <feComposite in2="blur" operator="in"/>
      <feComposite in="SourceGraphic"/>
    </filter>
  </defs>
  <g id="Botoes">
    <g>
      <circle class="cls-2" cx="47" cy="45" r="45"/>
      <path class="cls-1" d="M52.5,50.06l-11.63,11.63-5.32-5.32,11.63-11.63-11.62-11.62,5.32-5.32,16.94,16.94-5.32,5.32h0ZM76.64,44.75c0-16.54-13.41-29.95-29.95-29.95-16.54,0-29.94,13.41-29.94,29.94,0,16.54,13.41,29.95,29.95,29.95,16.54,0,29.94-13.41,29.94-29.94M82.63,44.75c0,19.85-16.09,35.93-35.93,35.93-19.85,0-35.94-16.09-35.94-35.94,0-19.85,16.09-35.93,35.93-35.93,19.85,0,35.93,16.09,35.94,35.94"/>
    </g>
  </g>
</svg>