<?xml version="1.0" encoding="UTF-8"?>
<svg id="Camada_2" data-name="Camada 2" xmlns="http://www.w3.org/2000/svg" viewBox="0 0 449 413">
  <defs>
    <style>
      .cls-1 {
        fill: #fff;
      }

      .cls-2 {
        fill: #854ef5;
      }

      .cls-3 {
        fill: #fdccff;
        opacity: .9;
      }
    </style>
  </defs>
  <g id="Popup_Créditos" data-name="Popup Créditos">
    <path class="cls-3" d="M4,72h421.72c10.64,0,19.28,8.64,19.28,19.28v298.43c0,10.64-8.64,19.28-19.28,19.28H23.28c-10.64,0-19.28-8.64-19.28-19.28V72h0Z"/>
    <path class="cls-1" d="M320.86,4c11.05,0,20,8.95,20,20v48h84.86c10.65,0,19.28,8.63,19.28,19.28v298.43c0,10.65-8.63,19.28-19.28,19.28H23.28c-10.65,0-19.28-8.63-19.28-19.28V24C4,12.95,12.95,4,24,4h296.86M320.86,0H24C10.77,0,0,10.77,0,24v365.72c0,12.84,10.44,23.28,23.28,23.28h402.43c12.84,0,23.28-10.44,23.28-23.28V91.28c0-12.84-10.44-23.28-23.28-23.28h-80.86V24c0-13.23-10.77-24-24-24h0Z"/>
    <path class="cls-2" d="M426,73c10.48,0,19,8.52,19,19v297c0,10.48-8.52,19-19,19H24c-10.48,0-19-8.52-19-19V73h421M426,72H4v317c0,11.05,8.95,20,20,20h402c11.05,0,20-8.95,20-20V92c0-11.05-8.95-20-20-20h0Z"/>
    <path class="cls-2" d="M24,4h296.86c11.04,0,20,8.96,20,20v48.73H4V24C4,12.96,12.96,4,24,4Z"/>
  </g>
</svg>